<svg id="Layer_1" data-name="Layer 1" xmlns="http://www.w3.org/2000/svg" viewBox="0 0 219 67.99"><path d="M36.61,66.2a15.83,15.83,0,0,1-6.28-4.89,12.31,12.31,0,0,1-2.53-6.83H38.15a5.69,5.69,0,0,0,2.31,3.9,8.12,8.12,0,0,0,5,1.54,7.76,7.76,0,0,0,4.59-1.18,3.55,3.55,0,0,0,1.66-3,3.18,3.18,0,0,0-2-3,38.76,38.76,0,0,0-6.43-2.17,54.4,54.4,0,0,1-7.45-2.27,13.08,13.08,0,0,1-5-3.6,9.71,9.71,0,0,1-2.09-6.54A10.56,10.56,0,0,1,30.7,32a13.05,13.05,0,0,1,5.58-4.4A20.84,20.84,0,0,1,44.83,26q7.28,0,11.6,3.64a13.48,13.48,0,0,1,4.78,9.8H51.37a5.33,5.33,0,0,0-2-3.85,7.47,7.47,0,0,0-4.81-1.44,7.65,7.65,0,0,0-4.3,1A3.29,3.29,0,0,0,38.74,38a3.36,3.36,0,0,0,2,3.12,31.67,31.67,0,0,0,6.39,2.16,55.42,55.42,0,0,1,7.27,2.28,12.84,12.84,0,0,1,5,3.63,10,10,0,0,1,2.16,6.5,10.84,10.84,0,0,1-1.94,6.32,12.91,12.91,0,0,1-5.58,4.37A21.21,21.21,0,0,1,45.57,68,21.59,21.59,0,0,1,36.61,66.2Z"/><path d="M80.3,13V67.33H70V13Z"/><path d="M90.25,35.91a18,18,0,0,1,6.68-7.35A17.8,17.8,0,0,1,106.36,26a16.6,16.6,0,0,1,8,1.84,16.18,16.18,0,0,1,5.47,4.62v-5.8h10.36V67.33H119.8V61.39a15.33,15.33,0,0,1-5.47,4.73,16.69,16.69,0,0,1-8,1.87,17.28,17.28,0,0,1-9.36-2.64,18.48,18.48,0,0,1-6.68-7.45,23.94,23.94,0,0,1-2.46-11A23.51,23.51,0,0,1,90.25,35.91Zm28.08,4.66a10.32,10.32,0,0,0-4-4.11A10.55,10.55,0,0,0,109,35a10.43,10.43,0,0,0-5.29,1.39,10.58,10.58,0,0,0-3.93,4.08,12.77,12.77,0,0,0-1.5,6.35,13.18,13.18,0,0,0,1.5,6.42,10.8,10.8,0,0,0,4,4.22A10.07,10.07,0,0,0,109,59a10.55,10.55,0,0,0,5.36-1.43,10.32,10.32,0,0,0,4-4.11A13.19,13.19,0,0,0,119.8,47,13.18,13.18,0,0,0,118.33,40.57Z"/><path d="M146.82,66.2a15.9,15.9,0,0,1-6.28-4.89A12.39,12.39,0,0,1,138,54.48h10.35a5.66,5.66,0,0,0,2.32,3.9,8.08,8.08,0,0,0,5,1.54,7.76,7.76,0,0,0,4.59-1.18,3.54,3.54,0,0,0,1.65-3,3.17,3.17,0,0,0-2-3,38.76,38.76,0,0,0-6.43-2.17,54.84,54.84,0,0,1-7.45-2.27,13,13,0,0,1-5-3.6A9.65,9.65,0,0,1,139,38.18,10.55,10.55,0,0,1,140.91,32a13.11,13.11,0,0,1,5.58-4.4A20.92,20.92,0,0,1,155.05,26q7.26,0,11.6,3.64a13.44,13.44,0,0,1,4.77,9.8h-9.84a5.29,5.29,0,0,0-2-3.85,7.47,7.47,0,0,0-4.81-1.44,7.59,7.59,0,0,0-4.29,1A3.28,3.28,0,0,0,149,38,3.37,3.37,0,0,0,151,41.16a31.67,31.67,0,0,0,6.39,2.16,55.91,55.91,0,0,1,7.27,2.28,12.81,12.81,0,0,1,5,3.63,10,10,0,0,1,2.17,6.5,10.77,10.77,0,0,1-1.95,6.32,12.85,12.85,0,0,1-5.58,4.37A21.18,21.18,0,0,1,155.78,68,21.62,21.62,0,0,1,146.82,66.2Z"/><path d="M211.37,28.09A13.91,13.91,0,0,1,217,34a20.4,20.4,0,0,1,2,9.44V67.33H208.72V44.86q0-4.84-2.42-7.45a8.59,8.59,0,0,0-6.61-2.61A8.79,8.79,0,0,0,193,37.41q-2.46,2.61-2.46,7.45V67.33H180.23V13h10.28V31.72a13.5,13.5,0,0,1,5.29-4.15,17.55,17.55,0,0,1,7.34-1.5A16.48,16.48,0,0,1,211.37,28.09Z"/><path d="M34.62,0,10.8,67.33H0L23.82,0Z"/></svg>